
      <svg data-logo="logo" xmlns="http://www.w3.org/2000/svg" viewBox="0 0 269 42.6" width="300" height="83">
        <g id="logogram" transform="translate(0, 1.3000000000000007) rotate(0)"><path d="M28.7089 33.1053L1.9434 14.6424C-0.768963 12.7715 0.15306 8.87601 3.53531 7.95996L31.9823 0.239132C32.5849 0.0216955 33.2306 -0.0488885 33.866 0.0332432C34.5013 0.115375 35.1079 0.34785 35.6355 0.711378C36.1629 1.07491 36.5961 1.559 36.899 2.12348C37.2018 2.68795 37.3658 3.31654 37.3771 3.95706L35.6912 30.1393C35.4913 33.247 31.4213 34.9762 28.7089 33.1053Z" fill="#E9327C"/><path d="M20.2197 37.6632L4.45132 6.82618C4.09087 6.12072 3.93226 5.32941 3.99297 4.53953C4.05367 3.74965 4.33135 2.99187 4.79536 2.34978C5.25939 1.70769 5.89172 1.20622 6.62264 0.900668C7.35356 0.595117 8.15466 0.497365 8.93761 0.618198L38.1604 5.12834C38.8331 5.23219 39.4717 5.49425 40.0236 5.89298C40.5753 6.29172 41.0245 6.81572 41.3344 7.42191C41.6441 8.0281 41.8057 8.69917 41.8055 9.37994C41.8054 10.0607 41.6437 10.7317 41.3338 11.3378L27.8719 37.6647C27.5104 38.3681 26.962 38.9583 26.2869 39.3703C25.6118 39.7823 24.8363 40.0002 24.0454 40C23.2545 39.9999 22.479 39.7817 21.804 39.3695C21.1291 38.9571 20.5809 38.3668 20.2197 37.6632Z" fill="#1DACE3"/><path d="M37.3055 4.9955L22.7382 2.74713L4.85269 7.60342L11.9917 21.5695L28.7089 33.1053C29.0777 33.357 29.4834 33.5497 29.9114 33.6767L36.2612 21.2592L37.3055 4.9955Z" fill="#001A49"/></g>
        <g id="logotype" transform="translate(48, 5.6000000000000005)"><path fill="#111111" d="M16.11 26L12.27 26L12.27 9.90L6.39 9.90L6.39 6.40L21.96 6.40L21.96 9.90L16.11 9.90L16.11 26ZM25.88 26L22.18 26L22.18 12L25.88 12L25.88 14.58Q26.75 13.26 28.08 12.60Q29.41 11.94 30.84 11.94L30.84 11.94L30.84 15.53Q29.55 15.53 28.41 15.84Q27.28 16.14 26.58 16.84Q25.88 17.54 25.88 18.64L25.88 18.64L25.88 26ZM36.63 26.34L36.63 26.34Q34.11 26.34 32.73 25.22Q31.34 24.10 31.34 22.05L31.34 22.05Q31.34 19.81 32.84 18.68Q34.34 17.54 37.05 17.54L37.05 17.54L40.36 17.54Q40.16 16.26 39.54 15.57Q38.93 14.88 37.78 14.88L37.78 14.88Q36.88 14.88 36.16 15.28Q35.43 15.67 34.92 16.48L34.92 16.48L31.68 15.36Q32.07 14.46 32.82 13.61Q33.58 12.76 34.80 12.21Q36.02 11.66 37.78 11.66L37.78 11.66Q39.91 11.66 41.32 12.48Q42.74 13.29 43.42 14.76Q44.11 16.23 44.08 18.24L44.08 18.24L44.00 26L40.55 26L40.50 24.38Q39.96 25.33 39.00 25.83Q38.03 26.34 36.63 26.34ZM37.25 23.26L37.25 23.26Q38.14 23.26 38.87 22.84Q39.60 22.42 40.02 21.74Q40.44 21.07 40.44 20.34L40.44 20.34L40.44 20.29L38.34 20.29Q36.52 20.29 35.82 20.72Q35.12 21.16 35.12 21.94L35.12 21.94Q35.12 22.56 35.68 22.91Q36.24 23.26 37.25 23.26ZM53.96 26L50.27 26L44.53 12L48.34 12L52.12 21.77L55.90 12L59.70 12L53.96 26ZM66.68 26.34L66.68 26.34Q64.60 26.34 63.01 25.40Q61.41 24.46 60.50 22.81Q59.59 21.16 59.59 19L59.59 19Q59.59 16.84 60.53 15.19Q61.47 13.54 63.11 12.60Q64.74 11.66 66.87 11.66L66.87 11.66Q68.72 11.66 70.27 12.63Q71.83 13.60 72.77 15.46Q73.70 17.32 73.70 19.98L73.70 19.98L63.46 19.98Q63.60 21.38 64.66 22.21Q65.72 23.03 67.07 23.03L67.07 23.03Q68.22 23.03 68.94 22.54Q69.67 22.05 70.06 21.27L70.06 21.27L73.37 22.56Q72.78 23.73 71.84 24.59Q70.90 25.44 69.62 25.89Q68.33 26.34 66.68 26.34ZM63.65 17.24L63.65 17.24L69.70 17.24Q69.62 16.37 69.14 15.84Q68.66 15.30 68.02 15.05Q67.38 14.80 66.76 14.80L66.76 14.80Q66.17 14.80 65.49 15.04Q64.80 15.28 64.28 15.81Q63.76 16.34 63.65 17.24ZM78.86 26L75.16 26L75.16 6.40L78.86 6.40L78.86 26ZM85.72 26L81.88 26L81.88 6.40L86.05 6.40L91.76 14.86L97.48 6.40L101.62 6.40L101.62 26L97.81 26L97.81 12.39L91.76 21.30L85.72 12.42L85.72 26ZM109.18 26.34L109.18 26.34Q106.66 26.34 105.27 25.22Q103.89 24.10 103.89 22.05L103.89 22.05Q103.89 19.81 105.39 18.68Q106.88 17.54 109.60 17.54L109.60 17.54L112.90 17.54Q112.71 16.26 112.09 15.57Q111.48 14.88 110.33 14.88L110.33 14.88Q109.43 14.88 108.70 15.28Q107.98 15.67 107.47 16.48L107.47 16.48L104.22 15.36Q104.62 14.46 105.37 13.61Q106.13 12.76 107.35 12.21Q108.56 11.66 110.33 11.66L110.33 11.66Q112.46 11.66 113.87 12.48Q115.28 13.29 115.97 14.76Q116.66 16.23 116.63 18.24L116.63 18.24L116.54 26L113.10 26L113.04 24.38Q112.51 25.33 111.55 25.83Q110.58 26.34 109.18 26.34ZM109.80 23.26L109.80 23.26Q110.69 23.26 111.42 22.84Q112.15 22.42 112.57 21.74Q112.99 21.07 112.99 20.34L112.99 20.34L112.99 20.29L110.89 20.29Q109.07 20.29 108.37 20.72Q107.67 21.16 107.67 21.94L107.67 21.94Q107.67 22.56 108.23 22.91Q108.79 23.26 109.80 23.26ZM124.64 26.34L124.64 26.34Q122.31 26.34 121.12 25.19Q119.93 24.04 119.93 21.91L119.93 21.91L119.93 15.14L117.66 15.14L117.66 12L119.93 12L119.93 7.63L123.63 7.63L123.63 12L127.13 12L127.13 15.14L123.63 15.14L123.63 21.10Q123.63 22.00 124.02 22.46Q124.41 22.92 125.17 22.92L125.17 22.92Q125.45 22.92 125.78 22.79Q126.12 22.67 126.48 22.42L126.48 22.42L127.77 25.19Q127.10 25.69 126.27 26.01Q125.45 26.34 124.64 26.34ZM135.50 26.34L135.50 26.34Q133.43 26.34 131.83 25.40Q130.24 24.46 129.33 22.81Q128.42 21.16 128.42 19L128.42 19Q128.42 16.84 129.35 15.19Q130.29 13.54 131.93 12.60Q133.57 11.66 135.70 11.66L135.70 11.66Q137.54 11.66 139.10 12.63Q140.65 13.60 141.59 15.46Q142.53 17.32 142.53 19.98L142.53 19.98L132.28 19.98Q132.42 21.38 133.48 22.21Q134.55 23.03 135.89 23.03L135.89 23.03Q137.04 23.03 137.77 22.54Q138.50 22.05 138.89 21.27L138.89 21.27L142.19 22.56Q141.60 23.73 140.67 24.59Q139.73 25.44 138.44 25.89Q137.15 26.34 135.50 26.34ZM132.48 17.24L132.48 17.24L138.52 17.24Q138.44 16.37 137.96 15.84Q137.49 15.30 136.84 15.05Q136.20 14.80 135.58 14.80L135.58 14.80Q135.00 14.80 134.31 15.04Q133.62 15.28 133.11 15.81Q132.59 16.34 132.48 17.24ZM156.84 31.88L156.84 31.88Q153.87 31.88 151.40 30.93Q148.94 29.98 147.15 28.24Q145.36 26.50 144.36 24.14Q143.37 21.77 143.37 18.94L143.37 18.94Q143.37 16.09 144.35 13.72Q145.33 11.36 147.13 9.62Q148.94 7.88 151.40 6.93Q153.87 5.98 156.84 5.98L156.84 5.98Q159.52 5.98 161.79 6.93Q164.06 7.88 165.71 9.62Q167.36 11.36 168.27 13.72Q169.18 16.09 169.18 18.94L169.18 18.94Q169.18 21.13 168.44 22.81Q167.70 24.49 166.41 25.45Q165.12 26.42 163.44 26.42L163.44 26.42Q162.02 26.42 160.99 25.68Q159.97 24.94 159.69 23.42L159.69 23.42Q158.91 24.43 157.75 25.02Q156.58 25.61 155.16 25.61L155.16 25.61Q153.45 25.61 152.13 24.75Q150.82 23.90 150.07 22.39Q149.33 20.88 149.33 18.94L149.33 18.94Q149.33 16.98 150.07 15.50Q150.82 14.02 152.13 13.16Q153.45 12.31 155.16 12.31L155.16 12.31Q156.47 12.31 157.56 12.80Q158.66 13.29 159.41 14.18L159.41 14.18L159.41 12.59L162.49 12.59L162.49 22.70Q162.49 23.40 162.83 23.69Q163.16 23.98 163.70 23.98L163.70 23.98Q164.51 23.98 165.12 23.34Q165.74 22.70 166.09 21.56Q166.44 20.43 166.44 18.94L166.44 18.94Q166.44 16.68 165.73 14.80Q165.01 12.92 163.74 11.54Q162.46 10.15 160.70 9.40Q158.94 8.64 156.84 8.64L156.84 8.64Q154.46 8.64 152.50 9.40Q150.54 10.15 149.11 11.54Q147.68 12.92 146.90 14.80Q146.11 16.68 146.11 18.94L146.11 18.94Q146.11 21.21 146.90 23.09Q147.68 24.96 149.11 26.34Q150.54 27.71 152.50 28.46Q154.46 29.22 156.84 29.22L156.84 29.22Q157.82 29.22 158.94 28.93Q160.06 28.63 160.81 28.16L160.81 28.16L162.32 30.31Q161.15 31.01 159.61 31.45Q158.07 31.88 156.84 31.88ZM156.30 22.53L156.30 22.53Q157.59 22.53 158.47 21.67Q159.36 20.82 159.52 19.45L159.52 19.45L159.50 18.33Q159.33 17.01 158.40 16.19Q157.48 15.36 156.14 15.36L156.14 15.36Q155.16 15.36 154.41 15.81Q153.67 16.26 153.24 17.05Q152.80 17.85 152.80 18.92L152.80 18.92Q152.80 19.95 153.27 20.78Q153.73 21.60 154.50 22.07Q155.27 22.53 156.30 22.53ZM175.43 26L171.59 26L171.59 6.40L175.43 6.40L175.43 26ZM182.82 26L178.98 26L178.98 6.40L182.82 6.40L182.82 26ZM194.36 26L190.52 26L190.52 9.90L184.64 9.90L184.64 6.40L200.21 6.40L200.21 9.90L194.36 9.90L194.36 26ZM211.13 26.34L211.13 26.34Q208.13 26.34 205.82 25.03Q203.51 23.73 202.20 21.45Q200.88 19.17 200.88 16.20L200.88 16.20Q200.88 13.23 202.20 10.95Q203.51 8.67 205.82 7.37Q208.13 6.06 211.13 6.06L211.13 6.06Q212.92 6.06 214.43 6.60Q215.94 7.13 217.11 8.07Q218.27 9.00 219.05 10.21L219.05 10.21L215.92 12.17Q215.44 11.41 214.67 10.82Q213.90 10.24 212.98 9.90Q212.05 9.56 211.13 9.56L211.13 9.56Q209.28 9.56 207.85 10.42Q206.42 11.27 205.61 12.76Q204.80 14.24 204.80 16.20L204.80 16.20Q204.80 18.13 205.60 19.64Q206.40 21.16 207.85 22.01Q209.31 22.86 211.21 22.86L211.21 22.86Q212.64 22.86 213.76 22.32Q214.88 21.77 215.55 20.79Q216.22 19.81 216.31 18.50L216.31 18.50L211.77 18.50L211.77 15.50L220.00 15.50L220.00 17.88Q219.95 20.57 218.80 22.46Q217.65 24.35 215.66 25.34Q213.68 26.34 211.13 26.34Z"/></g>
        
      </svg>
    