
      <svg data-logo="logo" xmlns="http://www.w3.org/2000/svg" viewBox="0 0 229 42">
        <g id="logogram" transform="translate(0, 1) rotate(0)"><path d="M28.7089 33.1053L1.9434 14.6424C-0.768963 12.7715 0.15306 8.87601 3.53531 7.95996L31.9823 0.239132C32.5849 0.0216955 33.2306 -0.0488885 33.866 0.0332432C34.5013 0.115375 35.1079 0.34785 35.6355 0.711378C36.1629 1.07491 36.5961 1.559 36.899 2.12348C37.2018 2.68795 37.3658 3.31654 37.3771 3.95706L35.6912 30.1393C35.4913 33.247 31.4213 34.9762 28.7089 33.1053Z" fill="#E9327C"/><path d="M20.2197 37.6632L4.45132 6.82618C4.09087 6.12072 3.93226 5.32941 3.99297 4.53953C4.05367 3.74965 4.33135 2.99187 4.79536 2.34978C5.25939 1.70769 5.89172 1.20622 6.62264 0.900668C7.35356 0.595117 8.15466 0.497365 8.93761 0.618198L38.1604 5.12834C38.8331 5.23219 39.4717 5.49425 40.0236 5.89298C40.5753 6.29172 41.0245 6.81572 41.3344 7.42191C41.6441 8.0281 41.8057 8.69917 41.8055 9.37994C41.8054 10.0607 41.6437 10.7317 41.3338 11.3378L27.8719 37.6647C27.5104 38.3681 26.962 38.9583 26.2869 39.3703C25.6118 39.7823 24.8363 40.0002 24.0454 40C23.2545 39.9999 22.479 39.7817 21.804 39.3695C21.1291 38.9571 20.5809 38.3668 20.2197 37.6632Z" fill="#1DACE3"/><path d="M37.3055 4.9955L22.7382 2.74713L4.85269 7.60342L11.9917 21.5695L28.7089 33.1053C29.0777 33.357 29.4834 33.5497 29.9114 33.6767L36.2612 21.2592L37.3055 4.9955Z" fill="#001A49"/></g>
        <g id="logotype" transform="translate(48, 8)"><path fill="#111111" d="M15.07 4.86L7.28 4.86L7.28 0.54L28.08 0.54L28.08 4.86L20.30 4.86L20.30 26L15.07 26L15.07 4.86ZM34.40 26L29.27 26L29.27 6.89L34.23 6.89L34.23 10.23L34.44 10.23Q34.97 8.45 36.20 7.54Q37.44 6.64 39.05 6.64L39.05 6.64Q39.44 6.64 39.90 6.68Q40.35 6.72 40.71 6.81L40.71 6.81L40.71 11.39Q40.37 11.27 39.72 11.20Q39.07 11.13 38.49 11.13L38.49 11.13Q37.32 11.13 36.38 11.64Q35.44 12.14 34.92 13.04Q34.40 13.93 34.40 15.13L34.40 15.13L34.40 26ZM46.58 26.38L46.58 26.38Q44.77 26.38 43.33 25.74Q41.88 25.09 41.06 23.82Q40.23 22.55 40.23 20.65L40.23 20.65Q40.23 19.06 40.82 17.98Q41.41 16.91 42.42 16.26Q43.44 15.61 44.73 15.27Q46.02 14.93 47.44 14.79L47.44 14.79Q49.10 14.62 50.11 14.47Q51.13 14.33 51.60 14.01Q52.07 13.70 52.07 13.08L52.07 13.08L52.07 12.99Q52.07 12.17 51.73 11.61Q51.39 11.05 50.72 10.75Q50.05 10.45 49.08 10.45L49.08 10.45Q48.09 10.45 47.35 10.75Q46.62 11.05 46.16 11.54Q45.70 12.04 45.47 12.65L45.47 12.65L40.77 11.87Q41.27 10.21 42.41 9.05Q43.56 7.88 45.26 7.27Q46.96 6.65 49.08 6.65L49.08 6.65Q50.63 6.65 52.09 7.02Q53.54 7.39 54.69 8.16Q55.85 8.93 56.52 10.16Q57.20 11.39 57.20 13.13L57.20 13.13L57.20 26L52.34 26L52.34 23.35L52.17 23.35Q51.71 24.24 50.94 24.91Q50.17 25.59 49.09 25.98Q48.00 26.38 46.58 26.38ZM48.04 22.77L48.04 22.77Q49.25 22.77 50.16 22.29Q51.08 21.81 51.59 20.99Q52.10 20.17 52.10 19.16L52.10 19.16L52.10 17.10Q51.88 17.27 51.42 17.40Q50.96 17.54 50.40 17.64Q49.83 17.75 49.28 17.83Q48.74 17.92 48.31 17.97L48.31 17.97Q47.37 18.10 46.65 18.41Q45.93 18.72 45.54 19.22Q45.15 19.73 45.15 20.51L45.15 20.51Q45.15 21.25 45.52 21.75Q45.90 22.26 46.54 22.51Q47.18 22.77 48.04 22.77ZM70.51 26L64.68 26L57.64 6.89L63.09 6.89L66.30 16.81Q66.88 18.67 67.32 20.57Q67.76 22.46 68.22 24.50L68.22 24.50L67.12 24.50Q67.57 22.46 68.00 20.57Q68.42 18.67 69.00 16.81L69.00 16.81L72.18 6.89L77.57 6.89L70.51 26ZM86.64 26.38L86.64 26.38Q83.72 26.38 81.60 25.18Q79.48 23.98 78.34 21.78Q77.21 19.57 77.21 16.55L77.21 16.55Q77.21 13.59 78.33 11.37Q79.46 9.15 81.53 7.90Q83.60 6.65 86.38 6.65L86.38 6.65Q88.26 6.65 89.89 7.25Q91.51 7.85 92.74 9.06Q93.97 10.26 94.66 12.07Q95.35 13.88 95.35 16.34L95.35 16.34L95.35 17.78L79.31 17.78L79.31 14.57L92.84 14.57L90.45 15.42Q90.45 13.93 90.00 12.83Q89.54 11.73 88.65 11.12Q87.75 10.52 86.42 10.52L86.42 10.52Q85.10 10.52 84.17 11.13Q83.24 11.75 82.76 12.80Q82.28 13.85 82.28 15.20L82.28 15.20L82.28 17.47Q82.28 19.13 82.84 20.26Q83.39 21.39 84.39 21.95Q85.39 22.51 86.72 22.51L86.72 22.51Q87.63 22.51 88.36 22.26Q89.10 22.00 89.62 21.50Q90.14 20.99 90.42 20.26L90.42 20.26L95.06 21.13Q94.60 22.70 93.46 23.89Q92.31 25.08 90.60 25.73Q88.88 26.38 86.64 26.38ZM96.58 0.54L101.71 0.54L101.71 26L96.58 26L96.58 0.54ZM109.09 26L103.91 26L103.91 0.54L111.91 0.54L116.05 12.23Q116.30 13.05 116.64 14.34Q116.97 15.64 117.31 17.15Q117.65 18.65 117.95 20.07Q118.25 21.49 118.44 22.53L118.44 22.53L117.43 22.53Q117.62 21.51 117.92 20.10Q118.22 18.69 118.56 17.18Q118.90 15.68 119.23 14.36Q119.57 13.05 119.82 12.23L119.82 12.23L123.89 0.54L131.92 0.54L131.92 26L126.68 26L126.68 13.99Q126.68 13.17 126.71 11.92Q126.74 10.67 126.78 9.23Q126.81 7.78 126.85 6.32Q126.88 4.86 126.90 3.56L126.90 3.56L127.22 3.56Q126.90 4.98 126.51 6.49Q126.11 8.00 125.71 9.42Q125.31 10.84 124.95 12.03Q124.59 13.22 124.33 13.99L124.33 13.99L120.11 26L115.72 26L111.43 13.99Q111.18 13.22 110.82 12.05Q110.46 10.88 110.06 9.46Q109.65 8.04 109.24 6.53Q108.83 5.01 108.46 3.56L108.46 3.56L108.87 3.56Q108.89 4.79 108.92 6.24Q108.95 7.70 109.00 9.16Q109.04 10.62 109.07 11.88Q109.09 13.13 109.09 13.99L109.09 13.99L109.09 26ZM139.46 26.38L139.46 26.38Q137.65 26.38 136.20 25.74Q134.76 25.09 133.93 23.82Q133.10 22.55 133.10 20.65L133.10 20.65Q133.10 19.06 133.69 17.98Q134.28 16.91 135.30 16.26Q136.31 15.61 137.60 15.27Q138.89 14.93 140.31 14.79L140.31 14.79Q141.97 14.62 142.99 14.47Q144.00 14.33 144.47 14.01Q144.94 13.70 144.94 13.08L144.94 13.08L144.94 12.99Q144.94 12.17 144.60 11.61Q144.26 11.05 143.59 10.75Q142.93 10.45 141.95 10.45L141.95 10.45Q140.96 10.45 140.23 10.75Q139.49 11.05 139.03 11.54Q138.57 12.04 138.35 12.65L138.35 12.65L133.65 11.87Q134.14 10.21 135.29 9.05Q136.43 7.88 138.13 7.27Q139.83 6.65 141.95 6.65L141.95 6.65Q143.51 6.65 144.96 7.02Q146.41 7.39 147.57 8.16Q148.72 8.93 149.40 10.16Q150.07 11.39 150.07 13.13L150.07 13.13L150.07 26L145.22 26L145.22 23.35L145.05 23.35Q144.58 24.24 143.82 24.91Q143.05 25.59 141.96 25.98Q140.88 26.38 139.46 26.38ZM140.91 22.77L140.91 22.77Q142.12 22.77 143.04 22.29Q143.95 21.81 144.46 20.99Q144.98 20.17 144.98 19.16L144.98 19.16L144.98 17.10Q144.76 17.27 144.29 17.40Q143.83 17.54 143.27 17.64Q142.70 17.75 142.16 17.83Q141.61 17.92 141.18 17.97L141.18 17.97Q140.24 18.10 139.53 18.41Q138.81 18.72 138.41 19.22Q138.02 19.73 138.02 20.51L138.02 20.51Q138.02 21.25 138.40 21.75Q138.77 22.26 139.41 22.51Q140.06 22.77 140.91 22.77ZM150.32 6.89L161.65 6.89L161.65 10.81L150.32 10.81L150.32 6.89ZM152.96 20.86L152.96 2.35L158.08 2.35L158.08 20.41Q158.08 21.32 158.48 21.75Q158.89 22.19 159.83 22.19L159.83 22.19Q160.12 22.19 160.65 22.11Q161.18 22.04 161.45 21.97L161.45 21.97L162.18 25.81Q161.33 26.07 160.48 26.17Q159.64 26.27 158.87 26.27L158.87 26.27Q156.00 26.27 154.48 24.87Q152.96 23.47 152.96 20.86L152.96 20.86ZM171.34 26.38L171.34 26.38Q168.42 26.38 166.30 25.18Q164.18 23.98 163.05 21.78Q161.91 19.57 161.91 16.55L161.91 16.55Q161.91 13.59 163.04 11.37Q164.17 9.15 166.23 7.90Q168.30 6.65 171.09 6.65L171.09 6.65Q172.97 6.65 174.59 7.25Q176.21 7.85 177.44 9.06Q178.67 10.26 179.37 12.07Q180.06 13.88 180.06 16.34L180.06 16.34L180.06 17.78L164.01 17.78L164.01 14.57L177.55 14.57L175.15 15.42Q175.15 13.93 174.70 12.83Q174.25 11.73 173.35 11.12Q172.45 10.52 171.12 10.52L171.12 10.52Q169.80 10.52 168.87 11.13Q167.94 11.75 167.46 12.80Q166.98 13.85 166.98 15.20L166.98 15.20L166.98 17.47Q166.98 19.13 167.54 20.26Q168.10 21.39 169.10 21.95Q170.10 22.51 171.43 22.51L171.43 22.51Q172.33 22.51 173.07 22.26Q173.80 22.00 174.33 21.50Q174.85 20.99 175.12 20.26L175.12 20.26L179.77 21.13Q179.31 22.70 178.16 23.89Q177.02 25.08 175.30 25.73Q173.58 26.38 171.34 26.38Z"/></g>
        
      </svg>
    